<?xml version="1.0" encoding="UTF-8"?>
<svg width="700pt" height="700pt" version="1.1" viewBox="0 0 700 700" xmlns="http://www.w3.org/2000/svg">
 <path d="m487.09 277.76c10.5-13.082 16.191-29.371 16.125-46.145 0.11328-20.117-7.9297-39.422-22.289-53.512-14.363-14.086-33.82-21.754-53.93-21.254-20.113 0.50391-39.16 9.1328-52.805 23.918-14.672-2.7383-29.828-0.94141-43.457 5.1523-12.68-16.703-31.785-27.312-52.664-29.254-20.879-1.9375-41.613 4.9727-57.152 19.051-15.539 14.078-24.457 34.031-24.582 55-0.066407 16.777 5.6289 33.062 16.129 46.145-29 11.809-53.805 32.031-71.211 58.062-17.406 26.027-26.617 56.672-26.453 87.984v36.289c0 2.9727 1.1797 5.8203 3.2812 7.9219 2.0977 2.0977 4.9492 3.2773 7.918 3.2773h78.398v11.203c0 2.9688 1.1797 5.8164 3.2812 7.918 2.1016 2.1016 4.9492 3.2812 7.9219 3.2812h291.2c2.9688 0 5.8203-1.1797 7.918-3.2812 2.1016-2.1016 3.2812-4.9492 3.2812-7.918v-11.203h56c2.9688 0 5.8203-1.1797 7.918-3.2773 2.1016-2.1016 3.2812-4.9492 3.2812-7.9219v-36.289c-0.050781-31.211-9.4141-61.695-26.891-87.555-17.48-25.859-42.277-45.914-71.219-57.594zm-58.691-98.562c13.902 0 27.234 5.5234 37.066 15.352 9.8281 9.832 15.352 23.164 15.352 37.066 0.10938 16.531-7.7227 32.113-21.055 41.887-2.6992 2.1211-5.6289 3.9258-8.7383 5.375l-2.6875 1.3438c-2.7578 1.1328-5.6055 2.0312-8.5117 2.6875h-1.5664-8.5117v-2.0156h-0.003906c1.2461-3.0625 2.2969-6.207 3.1367-9.4062v-4.2578c0.97656-4.7148 1.5039-9.5156 1.5703-14.336 0.21875-3.8047 0.21875-7.6172 0-11.422v-3.3594l-2.0156-7.6172-1.3438-3.8086c0-2.2383-1.793-4.4805-2.9102-6.7188l-1.793-3.3594h-0.003907c-1.3594-2.3984-2.8555-4.7148-4.4805-6.9453-0.39062-0.83203-0.92188-1.5898-1.5664-2.2383-2.2383-2.1211-4.6367-4.0664-7.168-5.8242l-2.4648-2.2383v-0.003906c-1.9141-1.7617-3.9336-3.4102-6.0469-4.9258l-3.5859-2.2383v-0.003906c-0.99219-0.75-2.0391-1.4219-3.1328-2.0156 8.7461-6.7695 19.406-10.609 30.461-10.977zm-95.199 30.688c12.434-8.1758 27.836-10.473 42.113-6.2695 11.023 3.043 20.746 9.6211 27.664 18.73 6.9219 9.1055 10.66 20.23 10.641 31.668 0.13281 11.727-3.8281 23.137-11.203 32.258-2.6758 3.4961-5.8477 6.5898-9.4062 9.1836-3.25 2.4922-6.7852 4.5977-10.527 6.2695-4.4531 1.6719-9.0195 3.0195-13.664 4.0352-4.9141 0.53125-9.8711 0.53125-14.785 0h-4.707 0.003906c-6.2148-2.5547-12.273-5.4727-18.145-8.7383-5.7539-4.2031-10.496-9.6367-13.887-15.902-6.5938-11.656-8.4336-25.406-5.1367-38.387 3.2969-12.977 11.477-24.184 22.832-31.277zm-61.598-30.688c15.5-0.023438 30.203 6.8789 40.094 18.816l-2.9102 3.5859-4.4805 4.9297v-0.003906c-2.3633 2.7852-4.4648 5.7852-6.2734 8.9609-1.3281 1.7305-2.457 3.6094-3.3594 5.6016-1.7812 3.4258-3.207 7.0312-4.2578 10.75-0.69531 1.7578-1.293 3.5508-1.7891 5.375-1.4336 5.7148-2.1875 11.582-2.2422 17.473 0.085938 5.668 0.83594 11.309 2.2422 16.801 0.26562 1.5156 0.64062 3.0156 1.1172 4.4805 0.34766 1.4492 0.79687 2.8711 1.3477 4.2539-1.375 0.76562-2.7969 1.4375-4.2578 2.0156h-3.8086c-3.5898 0.90234-7.2734 1.3516-10.977 1.3477h-4.0312c-3.4922-0.32813-6.9453-1.0039-10.305-2.0195-5.5547-1.1992-10.766-3.6523-15.23-7.168l-2.4648-1.3438c-13.211-9.75-20.957-25.242-20.832-41.664 0.058594-13.863 5.6094-27.137 15.434-36.918 9.8203-9.7812 23.121-15.273 36.984-15.273zm-50.176 195.78c-2.1719 4.3789-4.1133 8.8633-5.8242 13.438 0 2.9102-2.4648 5.8242-3.3594 8.7344l-0.003907 0.003906c-1.6562 5.1406-3.0039 10.375-4.0312 15.68 0 2.6875-1.3438 5.1523-1.793 7.8398-1.3438 8.1445-2.0195 16.387-2.0156 24.641v2.6875h-67.199v-25.09c-0.042969-28.594 9.0312-56.461 25.91-79.543 16.879-23.082 40.684-40.18 67.945-48.809h1.793c4.2461 2.6836 8.7461 4.9336 13.441 6.7227 5.2227 1.8438 10.629 3.1211 16.125 3.8086h1.793c2.3906 0.12109 4.7812 0.12109 7.168 0h9.1836c5.0547-0.61328 10.016-1.8125 14.785-3.5859l-6.2734 3.5859c-5.1172 2.4062-10.059 5.1758-14.781 8.2852-2.6875 1.793-4.9297 3.8086-7.3906 5.6016-2.4648 1.793-7.8398 6.0469-11.648 9.4062l-6.0508 7.6172c-3.4414 3.3711-6.6602 6.9609-9.6328 10.754-2.0156 2.4648-4.0312 4.9297-5.8242 7.6172-1.793 2.6875-5.375 8.0625-7.8398 12.098zm274.18 84.223v11.199h-268.8v-25.086c0.007813-7.5039 0.60547-14.992 1.793-22.402 0-2.4648 1.3438-4.7031 1.793-6.9453l-0.003907 0.003906c1-4.3086 2.1953-8.5703 3.5859-12.77 0-2.6875 2.2383-5.1523 3.1367-7.6172 0.89453-2.4648 3.3594-8.2891 5.375-12.098s3.1367-4.9297 4.4805-7.3906v0.003906c2.1055-3.6445 4.4219-7.1602 6.9414-10.531 1.793-2.4648 3.8086-4.4805 5.8242-6.9453v0.003906c2.5859-3.1484 5.3516-6.1406 8.2891-8.9609 2.2109-2.1328 4.5273-4.1523 6.9453-6.0469 2.9766-2.7266 6.1211-5.2695 9.4062-7.6172l8.0625-4.9297c3.5859-2.0156 6.9453-4.2578 10.527-6.0469l9.1836-3.5859 0.003906 0.003906c2.9102-1.3164 5.9023-2.4375 8.9609-3.3633 2.1406 1.3672 4.3906 2.5664 6.7188 3.5859l3.5859 1.793h-0.003906c2.9883 1.5586 6.1445 2.7617 9.4102 3.582h33.156-0.003906c5.5352-1.0625 10.941-2.7148 16.129-4.9258 1.7109-0.76172 3.3594-1.6602 4.9258-2.6875 2.1953-0.82031 4.3008-1.8711 6.2734-3.1367l8.7344 3.1367c3.1367 1.3438 6.4961 2.4648 9.6328 4.0312 3.3789 1.6953 6.668 3.5625 9.8555 5.5977l8.7344 5.375 0.003906 0.003906c3.0625 2.1953 5.9805 4.5898 8.7344 7.168l7.6172 6.2734c2.6875 2.6875 5.1523 5.8242 7.6172 8.7344 2.4648 2.9102 4.4805 4.7031 6.4961 7.3906s4.2578 6.4961 6.2734 9.8555h-0.003906c1.8516 2.5547 3.5 5.25 4.9297 8.0664 1.9414 3.6992 3.6641 7.5156 5.1484 11.422 0 2.6875 2.4648 5.375 3.3594 8.0625 0.89453 2.6875 2.4648 9.1836 3.5859 13.664 1.1211 4.4805 1.3438 4.9297 1.793 7.3906v0.003906c1.1836 7.4062 1.7852 14.898 1.793 22.398zm67.199-11.199h-44.801v-2.6875c0.003906-8.1055-0.66797-16.199-2.0156-24.191 0-2.4648-1.1211-4.9297-1.5664-7.3906-0.44922-2.4648-2.4648-10.527-4.0312-15.68-1.5664-5.1523-1.793-5.6016-2.9102-8.2891-1.1211-2.6875-3.8086-9.4062-6.0469-13.887l-4.0312-7.6172c-2.6875-4.7031-5.6016-9.1836-8.5117-13.441-2.9102-4.2578-2.9102-4.2578-4.4805-6.0469h-0.007812c-4.4297-5.8164-9.2969-11.281-14.559-16.355l-1.1211-1.1211v0.003906c-5.6406-5.4102-11.707-10.352-18.145-14.785l-6.4961-2.9102c-3.168-2.1992-6.4609-4.2148-9.8555-6.0508h2.2422c10.898-1.1172 21.398-4.7188 30.688-10.527h1.793c26.863 8.4961 50.383 25.223 67.223 47.812 16.844 22.59 26.16 49.902 26.633 78.074z"/>
</svg>
